<?xml version="1.0" encoding="UTF-8"?>
<!DOCTYPE svg PUBLIC "-//W3C//DTD SVG 1.1//EN" "http://www.w3.org/Graphics/SVG/1.1/DTD/svg11.dtd">
<!-- Creator: CorelDRAW 2018 (64-Bit) -->
<svg xmlns="http://www.w3.org/2000/svg" xml:space="preserve" width="68.5283mm" height="69.2581mm" version="1.1" style="shape-rendering:geometricPrecision; text-rendering:geometricPrecision; image-rendering:optimizeQuality; fill-rule:evenodd; clip-rule:evenodd"
viewBox="0 0 1634.02 1651.43"
 xmlns:xlink="http://www.w3.org/1999/xlink">
 <defs>
  <style type="text/css">
   <![CDATA[
    .str1 {stroke:#1d411b;stroke-width:23.84;stroke-linecap:round;stroke-linejoin:round;stroke-miterlimit:22.9256}
    .str0 {stroke:#1d411b;stroke-width:4.77;stroke-linecap:round;stroke-linejoin:round;stroke-miterlimit:22.9256}
    .str2 {stroke:#1d411b;stroke-width:2.38;stroke-linecap:round;stroke-linejoin:round;stroke-miterlimit:22.9256}
    .fil1 {fill:none}
    .fil0 {fill:#1d411b}
    .fil2 {fill:#1d411b;fill-rule:nonzero}
   ]]>
  </style>
 </defs>
 <g id="Слой_x0020_1">
  <metadata id="CorelCorpID_0Corel-Layer"/>
  <g id="_1151228112">
   <path class="fil0 str0" d="M880.24 219.79c42.92,4.45 84.54,13.35 124.42,26.2l19.75 -42.42 117.25 54.58 -18.75 40.29c37.07,21.37 71.74,46.52 103.52,74.9l31.94 -30.91 89.94 92.94 -34.76 33.64c25.17,34.1 46.98,70.89 64.96,109.84l42.46 -13.13 38.21 123.56 -38.84 12.01c10.54,45.84 16.12,93.61 16.12,142.7 0,3.14 -0.07,6.27 -0.12,9.4l-25.23 0c0.05,-3.13 0.12,-6.25 0.12,-9.4 0,-332.45 -266.34,-601.95 -594.89,-601.95 -328.55,0 -594.89,269.5 -594.89,601.95 0,3.14 0.07,6.27 0.12,9.4l-25.23 0c-0.05,-3.13 -0.12,-6.25 -0.12,-9.4 0,-48.62 5.5,-95.94 15.85,-141.37l-43.13 -13.34 38.21 -123.56 46.47 14.37c17.63,-38.43 39.01,-74.75 63.64,-108.48l-37.45 -36.24 89.94 -92.94 34.15 33.06c31.4,-28.32 65.66,-53.46 102.3,-74.92l-19.74 -42.41 117.25 -54.58 20.35 43.71c40.61,-13.39 83.06,-22.66 126.86,-27.31l0 -45.78 129.33 0 0 45.61z"/>
   <path class="fil1 str1" d="M816.78 117.99c386.39,0 699.61,313.23 699.61,699.61 0,386.39 -313.23,699.61 -699.61,699.61 -386.39,0 -699.61,-313.23 -699.61,-699.61 0,-386.39 313.23,-699.61 699.61,-699.61z"/>
   <path class="fil0 str0" d="M1172.57 457.04l0 386.94 -158.13 0 -27.67 -28.36 -347.52 0 -28.21 28.36 -166.09 0 0 -386.94 365.39 -75.18 362.23 75.18zm-481.54 240.55l237.64 0 0 115.14 -237.64 0 0 -115.14zm402.95 29.95l63.61 0 0 52.05 -63.61 0 0 -52.05zm-91.48 0l63.61 0 0 52.05 -63.61 0 0 -52.05zm-67.41 0l45.09 0 0 52.05 -45.09 0 0 -52.05zm-289.57 0l38.94 0 0 52.05 -38.94 0 0 -52.05zm-88.32 0l63.61 0 0 52.05 -63.61 0 0 -52.05zm-91.21 0l63.61 0 0 52.05 -63.61 0 0 -52.05zm628 -86.49l63.61 0 0 52.05 -63.61 0 0 -52.05zm-91.48 0l63.61 0 0 52.05 -63.61 0 0 -52.05zm-88.32 0l63.61 0 0 52.05 -63.61 0 0 -52.05zm-90.95 0l63.61 0 0 52.05 -63.61 0 0 -52.05zm-86.22 0l63.61 0 0 52.05 -63.61 0 0 -52.05zm-91.48 0l63.61 0 0 52.05 -63.61 0 0 -52.05zm-88.32 0l63.61 0 0 52.05 -63.61 0 0 -52.05zm-91.21 0l63.61 0 0 52.05 -63.61 0 0 -52.05zm628 -88.32l63.61 0 0 52.05 -63.61 0 0 -52.05zm-91.48 0l63.61 0 0 52.05 -63.61 0 0 -52.05zm-88.32 0l63.61 0 0 52.05 -63.61 0 0 -52.05zm-90.95 0l63.61 0 0 52.05 -63.61 0 0 -52.05zm-86.22 0l63.61 0 0 52.05 -63.61 0 0 -52.05zm-91.48 0l63.61 0 0 52.05 -63.61 0 0 -52.05zm-88.32 0l63.61 0 0 52.05 -63.61 0 0 -52.05zm-91.21 0l63.61 0 0 52.05 -63.61 0 0 -52.05zm628 -79.91l63.61 0 0 52.05 -63.61 0 0 -52.05zm-91.48 0l63.61 0 0 52.05 -63.61 0 0 -52.05zm-88.32 0l63.61 0 0 52.05 -63.61 0 0 -52.05zm-90.95 0l63.61 0 0 52.05 -63.61 0 0 -52.05zm-86.22 0l63.61 0 0 52.05 -63.61 0 0 -52.05zm-91.48 0l63.61 0 0 52.05 -63.61 0 0 -52.05zm-88.32 0l63.61 0 0 52.05 -63.61 0 0 -52.05zm-91.21 0l63.61 0 0 52.05 -63.61 0 0 -52.05z"/>
   <polygon class="fil0 str0" points="699.43,774.35 763.58,774.35 763.58,793.8 699.43,793.8 "/>
   <polygon class="fil0 str0" points="800.9,722.3 822.98,722.3 822.98,741.75 800.9,741.75 "/>
   <polygon class="fil0 str0" points="861.89,773.82 917.09,773.82 917.09,793.27 861.89,793.27 "/>
   <line class="fil1 str0" x1="699.43" y1="721.77" x2="919.46" y2= "721.77" />
   <line class="fil1 str0" x1="761.74" y1="721.77" x2="761.74" y2= "774.35" />
   <polyline class="fil1 str0" points="790.65,812.72 790.65,745.43 835.87,745.43 835.87,812.72 "/>
   <line class="fil1 str0" x1="856.11" y1="721.77" x2="856.11" y2= "792.22" />
   <line class="fil1 str0" x1="893.17" y1="721.77" x2="893.17" y2= "773.82" />
   <path class="fil0" d="M995.13 1601.55c0,0 25.23,-2.1 39.69,-17.88 14.46,-15.77 51.79,-33.91 74.92,-26.29 23.13,7.63 75.44,34.44 80.44,32.6 5,-1.84 5.26,6.84 -18.93,11.57 -24.18,4.73 -17.08,22.08 -46.79,24.19 -29.71,2.1 -56.26,-11.3 -80.18,-16.04 -23.92,-4.73 -49.68,1.31 -49.16,-8.15zm31.01 6.2c0,0 28.92,-24.34 51.53,-28.28 22.61,-3.94 37.85,4.21 37.85,4.21 0,0 -43.9,6.05 -57.04,17.61 -13.14,11.57 -15.77,5.78 -32.34,6.46z"/>
   <path class="fil1" d="M1133.03 1550.94c0,0 37.71,-1.17 57.17,-16.68 19.45,-15.51 48.37,-13.67 62.3,-10.51 13.93,3.15 45.74,-4.73 -0.79,22.87 -46.53,27.6 -72.55,17.61 -107.78,7.62 -35.23,-9.99 23.13,5.26 46.27,1.58 23.13,-3.68 34.3,-13.14 22.74,-12.36 -6.08,0.41 -16.9,-0.75 -26.42,0.99 -8.6,1.58 -25.87,7.22 -35.26,9.15"/>
   <path class="fil0" d="M1151.25 1553.6c9.39,-1.93 26.67,-7.57 35.26,-9.15 9.52,-1.75 20.34,-0.58 26.42,-0.99 11.56,-0.79 0.4,8.68 -22.74,12.36 -9.9,1.57 -26.24,-0.31 -38.95,-2.21zm101.25 -29.86c-13.93,-3.15 -42.85,-5 -62.3,10.51 -17.46,13.92 -49.63,16.29 -56.04,16.63 -0.73,0.04 -1.13,0.05 -1.13,0.05 0.67,0.35 3.98,1.34 10.9,3.3 35.23,9.99 61.25,19.98 107.78,-7.62 46.53,-27.6 14.72,-19.71 0.79,-22.87z"/>
   <path class="fil0" d="M1172.46 1536.79c6.82,-5.74 20.89,-15.09 26.99,-20.45 6.76,-5.94 12.15,-14.5 15.95,-18.7 7.24,-7.98 -6.1,-5.29 -22.11,9.47 -6.85,6.31 -14.89,19.32 -20.83,29.68zm80.11 -56.65c-5.73,11.98 -21.05,34.13 -43.56,39.39 -20.21,4.71 -40.48,26.82 -44.42,31.29 -0.45,0.51 -0.69,0.79 -0.69,0.79 0.13,-0.69 1.32,-3.68 3.87,-9.85 13.01,-31.45 20.72,-56.18 67.66,-74.22 46.94,-18.04 22.86,0.62 17.13,12.6z"/>
   <path class="fil0" d="M1258.92 1512.04c6.78,-2.89 18.93,-9.78 25.16,-12.28 6.9,-2.77 15.23,-3.55 19.75,-4.79 8.59,-2.36 1.62,6.47 -15.24,12.78 -7.22,2.7 -19.81,3.77 -29.67,4.28zm71.7 -37.96c-10.98,-0.25 -33.04,2.79 -45.32,17.44 -11.02,13.15 -34.89,19.85 -39.67,21.09 -0.54,0.14 -0.84,0.21 -0.84,0.21 0.56,0.16 3.2,0.4 8.72,0.82 28.06,2.14 49.18,5.69 80.01,-22.21 30.83,-27.9 8.08,-17.1 -2.9,-17.35z"/>
   <path class="fil0" d="M1274.73 1493.46c3.87,-4.88 12.21,-13.23 15.64,-17.75 3.81,-5 6.3,-11.62 8.32,-15.02 3.85,-6.47 -4.91,-2.77 -13.83,9.55 -3.82,5.27 -7.51,15.3 -10.14,23.22zm46.99 -49.92c-2.26,9 -9.67,26.3 -24.36,33.02 -13.18,6.04 -23.99,23.99 -26.07,27.6 -0.24,0.41 -0.36,0.64 -0.36,0.64 -0,-0.49 0.39,-2.7 1.29,-7.28 4.54,-23.34 6.38,-41.35 36.02,-60.22 29.64,-18.87 15.74,-2.75 13.48,6.25z"/>
   <path class="fil0" d="M1326.03 1465.06c5.27,-2.61 14.63,-8.65 19.48,-10.93 5.37,-2.52 11.97,-3.52 15.5,-4.71 6.73,-2.27 1.59,5.08 -11.55,10.87 -5.62,2.48 -15.6,3.91 -23.43,4.77zm55.36 -33.5c-8.75,0.31 -26.18,3.73 -35.29,15.96 -8.18,10.97 -26.88,17.4 -30.62,18.6 -0.43,0.14 -0.66,0.21 -0.66,0.21 0.46,0.1 2.57,0.17 6.98,0.25 22.44,0.42 39.42,2.28 62.69,-21.34 23.27,-23.62 5.65,-13.98 -3.1,-13.68z"/>
   <path class="fil0" d="M1339.66 1447.21c2.57,-3.64 8.17,-9.94 10.43,-13.31 2.51,-3.73 4.02,-8.55 5.32,-11.06 2.48,-4.77 -3.62,-1.78 -9.48,7.38 -2.5,3.92 -4.73,11.22 -6.28,16.98zm31.48 -37.54c-1.24,6.51 -5.82,19.16 -16.03,24.56 -9.16,4.85 -16.14,18.1 -17.47,20.76 -0.15,0.31 -0.23,0.47 -0.23,0.47 -0.02,-0.35 0.17,-1.94 0.62,-5.25 2.28,-16.84 2.86,-29.77 23.23,-44.44 20.37,-14.68 11.12,-2.61 9.88,3.91z"/>
   <path class="fil0" d="M1383.36 1423.62c3.57,-2.77 9.69,-8.75 13,-11.21 3.66,-2.72 8.48,-4.48 10.96,-5.92 4.72,-2.74 1.97,3.58 -7.04,9.95 -3.86,2.73 -11.15,5.33 -16.92,7.17zm36.57 -33.69c-6.54,1.57 -19.15,6.81 -24.14,17.41 -4.48,9.51 -17.59,17.21 -20.22,18.69 -0.3,0.17 -0.46,0.26 -0.46,0.26 0.36,0.01 1.96,-0.26 5.29,-0.87 16.97,-3.11 30.04,-4.3 43.96,-25.65 13.92,-21.35 2.12,-11.4 -4.43,-9.83z"/>
   <path class="fil0" d="M1390.74 1408.28c1.39,-3.16 4.68,-8.82 5.88,-11.72 1.33,-3.22 1.74,-7.12 2.34,-9.23 1.15,-4.01 -3.03,-0.79 -6.06,7.07 -1.3,3.36 -1.87,9.26 -2.16,13.88zm18.15 -33.4c0.06,5.14 -1.47,15.46 -8.4,21.14 -6.22,5.1 -9.48,16.25 -10.08,18.48 -0.07,0.26 -0.1,0.39 -0.1,0.39 -0.07,-0.26 -0.17,-1.5 -0.34,-4.09 -0.86,-13.16 -2.42,-23.07 10.81,-37.37 13.23,-14.3 8.05,-3.7 8.11,1.44z"/>
   <path class="fil0" d="M1417.25 1383.15c2.8,-2.85 7.46,-8.82 10.06,-11.37 2.89,-2.82 6.9,-4.93 8.9,-6.49 3.81,-2.96 2.16,2.91 -4.99,9.56 -3.05,2.85 -9.14,5.99 -13.98,8.3zm28.05 -33.87c-5.55,2.15 -15.97,8.24 -19.09,18.12 -2.8,8.87 -13.37,17.17 -15.5,18.78 -0.24,0.18 -0.38,0.28 -0.38,0.28 0.31,-0.04 1.69,-0.46 4.54,-1.39 14.5,-4.74 25.82,-7.34 35.48,-27.7 9.66,-20.36 0.5,-10.24 -5.05,-8.09z"/>
   <path class="fil0" d="M1422.01 1368.65c0.83,-2.91 3.02,-8.21 3.72,-10.87 0.78,-2.95 0.67,-6.39 0.95,-8.29 0.52,-3.62 -2.72,-0.33 -4.43,6.86 -0.73,3.08 -0.53,8.26 -0.24,12.31zm11.82 -31.13c0.66,4.46 0.54,13.6 -4.8,19.35 -4.8,5.16 -6.32,15.22 -6.58,17.23 -0.03,0.23 -0.04,0.35 -0.04,0.35 -0.1,-0.22 -0.33,-1.28 -0.78,-3.51 -2.29,-11.32 -4.81,-19.75 4.99,-33.72 9.8,-13.97 6.56,-4.16 7.21,0.3z"/>
   <path class="fil0" d="M1444.79 1343.75c1.67,-2.58 4.27,-7.78 5.84,-10.1 1.74,-2.56 4.44,-4.77 5.71,-6.25 2.42,-2.81 2.07,1.86 -2.3,7.96 -1.86,2.61 -5.97,5.91 -9.26,8.38zm15.95 -29.8c-3.85,2.47 -10.77,8.65 -11.61,16.57 -0.75,7.11 -7.44,14.98 -8.81,16.51 -0.16,0.18 -0.24,0.27 -0.24,0.27 0.23,-0.08 1.2,-0.61 3.2,-1.75 10.2,-5.78 18.32,-9.47 22.49,-26.29 4.17,-16.81 -1.19,-7.79 -5.04,-5.32z"/>
   <path class="fil0" d="M1446.1 1332.25c0.19,-2.34 1.03,-6.71 1.16,-8.84 0.14,-2.37 -0.47,-4.96 -0.56,-6.45 -0.16,-2.83 -2.12,0.16 -2.31,5.89 -0.08,2.45 0.87,6.36 1.71,9.39zm4.19 -25.49c1.19,3.29 2.51,10.26 -0.67,15.45 -2.85,4.66 -2.45,12.54 -2.34,14.11 0.01,0.18 0.02,0.27 0.02,0.27 -0.11,-0.15 -0.45,-0.93 -1.13,-2.55 -3.49,-8.25 -6.7,-14.27 -1.41,-26.41 5.3,-12.13 4.34,-4.17 5.53,-0.88z"/>
   <path class="fil0 str0" d="M495.13 1175.17l-3 4.72 -8.1 -0.1 -69.35 107.31c0,0 98.55,-4.01 146.34,-15.11 58.36,-13.55 150.69,-40.3 210.1,-19.14 25.42,9.05 35.57,25.05 36.07,21.23 8,-60.77 12.71,-132.48 -60.68,-129.28 -12.56,-2.33 -27.91,-1.38 -46.58,5.09 -79.65,27.6 -136.96,26.07 -204.79,25.27z"/>
   <path class="fil1 str2" d="M473.75 1178.06l-76.23 116.03c0,0 88.32,12.38 162.98,-3.61 74.65,-15.99 181.91,-47.96 222.92,-11.86 41.01,36.1 50.99,14.44 79.39,-4.13 28.39,-18.57 94.64,-14.44 182.44,12.89 87.8,27.33 159.83,12.38 177.18,11.87 17.35,-0.52 19.46,-5.16 19.46,-5.16l-82.54 -111.91"/>
   <path class="fil1 str2" d="M714.4 1145.8c0,0 94.79,-28.2 100.05,32.79 5.26,60.99 1.05,112.51 1.05,112.51"/>
   <path class="fil1 str2" d="M461.45 1193.76l-66.48 91.12c-14.9,20.43 -10.95,18.51 7.94,19.61 119.24,6.93 208.35,-16.6 318.68,-9.48 24.13,1.56 36.72,-11.43 47.73,-5.72 10.6,5.5 39.67,40.74 80.2,7.21 6.08,-5.03 7.05,-5.36 15.1,-7.25 8.61,-2.02 12.98,-0.89 24.81,3.68 15.21,-0.52 147.92,5.78 182.02,10.98 34.09,5.2 160.49,5.71 172.03,1.04 11.54,-4.68 6.29,-5.72 6.29,-5.72l-82.86 -112.23"/>
   <path class="fil1 str2" d="M477.37 1178.06l-75.57 112.95c0,0 87.56,12.05 161.56,-3.51 74,-15.56 180.32,-46.69 220.98,-11.55 40.65,35.14 50.55,14.06 78.69,-4.02 28.15,-18.07 93.82,-14.06 180.85,12.55 87.04,26.61 158.44,12.05 175.64,11.55 17.2,-0.5 19.29,-5.02 19.29,-5.02l-81.82 -108.94"/>
   <path class="fil1 str2" d="M482.24 1178.06l-74.38 110.1c0,0 86.18,11.74 159.02,-3.42 72.84,-15.17 177.48,-45.51 217.5,-11.25 40.01,34.25 49.75,13.7 77.46,-3.92 27.7,-17.62 92.34,-13.7 178,12.23 85.67,25.94 155.95,11.75 172.87,11.26 16.93,-0.49 18.98,-4.89 18.98,-4.89l-80.53 -106.18"/>
   <path class="fil2" d="M656.68 969.7l11.57 -58.15c11.68,-1.65 24.57,-4.61 38.73,-8.89 3.26,5.22 -11.3,52.06 -13.33,61.44 -4.94,22.71 -7.41,41.47 -7.41,56.39 0,8.12 1.26,14.21 3.67,18.21 2.47,4.06 6.64,6.03 12.4,6.03 5.38,0 11.85,-2.47 19.48,-7.41l1.26 0.5 0 5.98 -0.49 1.43c-15.74,14.92 -30.78,22.33 -45.15,22.33 -8.23,0.11 -14.43,-1.15 -18.49,-3.84 -4.06,-2.69 -6.86,-6.2 -8.45,-10.53 -1.54,-4.33 -2.3,-9.54 -2.3,-15.69 0,-13.27 2.3,-32.42 6.91,-57.49 -7.18,-0.11 -15.14,-0.22 -23.81,-0.33 -8.12,0 -16.84,0.05 -26.17,0.16l-4.66 30.83 -7.24 48.71c-8.89,0.82 -20.68,3.35 -35.38,7.57l-2.08 -3.07c3.67,-15.96 6.75,-31.71 9.27,-47.23 2.52,-15.58 4.83,-31.49 6.97,-47.78 2.14,-16.24 3.24,-26.17 3.24,-29.73 0,-5.43 -1.48,-8.17 -4.33,-8.17 -1.76,0 -3.95,0.66 -6.64,1.92 -2.63,1.32 -8.12,4.28 -16.35,9l-1.65 0 -2.69 -4.99 0.93 -2.25c15.52,-11.85 27.7,-20.13 36.42,-24.74 8.72,-4.61 15.96,-6.91 21.78,-6.91 3.84,0 6.8,0.93 8.89,2.74 2.08,1.81 3.13,4.39 3.13,7.74 0,4.72 -1.04,13.61 -3.18,26.66l-4.83 29.4c12.4,0.22 21.56,0.33 27.48,0.33 7.52,0.11 14.98,0.05 22.49,-0.16zm148.39 0.99l2.25 0.16 41.14 -35.38c9.93,-8.45 17.61,-14.92 23.04,-19.36 5.43,-4.44 10.26,-7.74 14.54,-9.87 4.28,-2.14 8.61,-3.24 13,-3.24 3.78,0 7.95,1.26 12.56,3.73l0.49 2.41c-4.83,14.32 -8.28,25.18 -10.31,32.42l-0.77 0.66 -4.99 0 -0.99 -0.66c-1.48,-3.29 -3.02,-5.65 -4.66,-7.07 -1.59,-1.37 -3.68,-2.09 -6.25,-2.09 -3.73,0 -9.16,2.03 -16.29,6.04 -7.13,4 -18.93,12.07 -35.27,24.19l12.84 28.31c3.02,6.86 6.53,14.54 10.53,23.04 4,8.5 7.84,14.32 11.57,17.44 3.68,3.13 7.95,4.66 12.78,4.66 3.29,0 6.64,-0.71 9.93,-2.08 3.35,-1.37 7.35,-3.62 12.07,-6.75l1.15 0.49 0 7.84 -0.66 1.59c-14.26,12.34 -24.52,20.3 -30.88,23.81 -6.31,3.56 -11.85,5.32 -16.68,5.32 -6.04,0 -11.74,-3.51 -17.23,-10.53 -5.43,-7.02 -10.7,-17.44 -15.74,-31.27 -5.05,-13.82 -10.59,-28.36 -16.73,-43.56l-2.09 -0.16 -11.85 78.61c-8.94,0.82 -20.68,3.35 -35.38,7.57l-2.08 -3.07c4.28,-18.21 7.74,-35.93 10.26,-53.21l6.47 -45.31c1.81,-12.95 2.69,-21.72 2.69,-26.22 0,-5.43 -1.43,-8.17 -4.33,-8.17 -1.7,0 -3.9,0.66 -6.58,1.92 -2.69,1.32 -8.12,4.28 -16.4,9l-1.59 0 -2.74 -4.99 0.99 -2.25c15.96,-12.18 28.25,-20.52 36.86,-24.96 8.61,-4.44 15.85,-6.69 21.61,-6.69 3.35,0 6.14,0.88 8.39,2.58 2.25,1.7 3.35,4.28 3.35,7.74 0,4.28 -2.69,23.42 -8.01,57.38zm177.9 0l2.25 0.16 41.14 -35.38c9.93,-8.45 17.61,-14.92 23.04,-19.36 5.43,-4.44 10.26,-7.74 14.54,-9.87 4.28,-2.14 8.61,-3.24 13,-3.24 3.78,0 7.95,1.26 12.56,3.73l0.49 2.41c-4.83,14.32 -8.28,25.18 -10.31,32.42l-0.77 0.66 -4.99 0 -0.99 -0.66c-1.48,-3.29 -3.02,-5.65 -4.66,-7.07 -1.59,-1.37 -3.68,-2.09 -6.25,-2.09 -3.73,0 -9.16,2.03 -16.29,6.04 -7.13,4 -18.93,12.07 -35.27,24.19l12.84 28.31c3.02,6.86 6.53,14.54 10.53,23.04 4,8.5 7.84,14.32 11.57,17.44 3.68,3.13 7.95,4.66 12.78,4.66 3.29,0 6.64,-0.71 9.93,-2.08 3.35,-1.37 7.35,-3.62 12.07,-6.75l1.15 0.49 0 7.84 -0.66 1.59c-14.26,12.34 -24.52,20.3 -30.88,23.81 -6.31,3.56 -11.85,5.32 -16.68,5.32 -6.04,0 -11.74,-3.51 -17.23,-10.53 -5.43,-7.02 -10.7,-17.44 -15.74,-31.27 -5.05,-13.82 -10.59,-28.36 -16.73,-43.56l-2.09 -0.16 -11.85 78.61c-8.94,0.82 -20.68,3.35 -35.38,7.57l-2.08 -3.07c4.28,-18.21 7.74,-35.93 10.26,-53.21l6.47 -45.31c1.81,-12.95 2.69,-21.72 2.69,-26.22 0,-5.43 -1.43,-8.17 -4.33,-8.17 -1.7,0 -3.9,0.66 -6.58,1.92 -2.69,1.32 -8.12,4.28 -16.4,9l-1.59 0 -2.74 -4.99 0.99 -2.25c15.96,-12.18 28.25,-20.52 36.86,-24.96 8.61,-4.44 15.85,-6.69 21.61,-6.69 3.35,0 6.14,0.88 8.39,2.58 2.25,1.7 3.35,4.28 3.35,7.74 0,4.28 -2.69,23.42 -8.01,57.38z"/>
   <path class="fil2" d="M602.19 1353.88l-0.31 -0.39 0.41 -2.67 0.44 -0.46c4.5,0.24 9.7,0.36 15.65,0.36 2.57,0 7.91,-0.12 16.04,-0.36l0.31 0.41 -0.46 2.72 -0.44 0.39c-3.77,0.14 -5.88,0.27 -6.34,0.41 -0.54,0.14 -0.96,0.36 -1.32,0.66 -0.34,0.32 -0.64,0.79 -0.91,1.42 -0.46,1.05 -1.18,4.26 -2.18,9.6 -0.17,1 -1.3,7.52 -3.41,19.6l-3.08 18.09c-0.9,5.61 -1.34,9.09 -1.34,10.45 0,1.08 0.37,1.84 1.1,2.25 0.71,0.41 1.67,0.66 2.86,0.73l5.36 0.24 0.34 0.41 -0.29 2.47 -0.46 0.46c-3.82,-0.24 -9.25,-0.36 -16.28,-0.36 -5.16,0 -10.34,0.12 -15.55,0.36l-0.36 -0.41 0.26 -2.47 0.44 -0.46c0.34,-0.03 1.12,-0.08 2.33,-0.15 1.88,-0.05 3.18,-0.17 3.89,-0.34 0.71,-0.17 1.17,-0.34 1.39,-0.52 0.22,-0.19 0.51,-0.61 0.89,-1.29 0.37,-0.67 0.81,-2.32 1.34,-4.9 0.51,-2.59 1.13,-6 1.86,-10.23l2.16 -12.47 -0.64 -0.46c-6.1,4.95 -12.39,7.44 -18.86,7.44 -4.43,0 -8.15,-1.11 -11.15,-3.35 -3.03,-2.23 -4.53,-5.59 -4.53,-10.07 0,-1.35 0.05,-2.6 0.19,-3.77 0.14,-1.15 0.62,-4.54 1.49,-10.19 0.83,-5.95 1.23,-9.26 1.23,-9.96 0,-1.24 -0.49,-2.03 -1.5,-2.43 -1.01,-0.39 -3.14,-0.64 -6.4,-0.74l-0.36 -0.39 0.36 -2.62 0.39 -0.51c3.87,0.24 8.84,0.36 14.91,0.36 5.44,0 10.65,-0.12 15.6,-0.36l0.34 0.41 -0.29 2.72 -0.46 0.39c-0.32,0.07 -1.1,0.14 -2.32,0.2 -2.8,0.24 -4.51,0.56 -5.09,0.96 -0.57,0.42 -1.03,1.07 -1.39,1.93 -0.34,0.88 -0.96,4.29 -1.86,10.26 -0.88,5.95 -1.34,9.91 -1.34,11.85 0,2.79 0.91,4.9 2.75,6.37 1.83,1.47 4.08,2.2 6.71,2.2 2.71,0 5.19,-0.73 7.47,-2.2 2.28,-1.47 4,-3.48 5.17,-6.04 1.18,-2.57 2.18,-6.64 3.02,-12.24 0.85,-5.59 1.27,-9.04 1.27,-10.33 0,-0.66 -0.14,-1.17 -0.41,-1.54 -0.25,-0.36 -0.66,-0.62 -1.18,-0.79 -0.52,-0.15 -1.52,-0.29 -2.98,-0.39l-4.49 -0.26zm30.2 66.36l0.35 -2.62 0.49 -0.46c2.57,-0.63 4.13,-1.1 4.65,-1.44 0.27,-0.15 0.51,-0.39 0.69,-0.69 0.2,-0.29 0.47,-1.13 0.83,-2.53 0.34,-1.4 1.54,-7.98 3.58,-19.69l3.82 -22.09c1.22,-7.28 1.83,-11.92 1.83,-13.86 0,-0.83 -0.2,-1.44 -0.63,-1.83 -0.41,-0.41 -0.91,-0.62 -1.5,-0.69 -0.59,-0.07 -2.89,-0.22 -6.88,-0.46l-0.35 -0.39 0.41 -2.72 0.44 -0.41c5.26,0.24 12.32,0.36 21.2,0.36 1.59,0 11.63,-0.12 30.1,-0.36l0.51 0.59c-0.07,0.79 -0.56,3.6 -1.44,8.42 -0.47,2.59 -0.83,4.99 -1.1,7.23l-0.44 0.41 -2.57 0 -0.41 -0.41c0.1,-3.85 0.15,-6.17 0.15,-6.93 0,-1 -0.12,-1.67 -0.36,-2.03 -0.22,-0.37 -0.81,-0.71 -1.72,-1.05 -0.93,-0.32 -2.69,-0.63 -5.27,-0.88 -2.6,-0.27 -5.05,-0.41 -7.35,-0.41 -3.63,0 -6.64,0.2 -9.01,0.59l-3.08 15.45c-0.46,2.32 -1.08,5.7 -1.84,10.16 7.2,0.17 11.76,0.25 13.67,0.25 2.97,0 6.17,-0.08 9.6,-0.25l0.31 0.59 -1.29 4.36 -0.59 0.44c-6.15,-0.12 -12.29,-0.27 -18.42,-0.44 -1.15,0 -2.52,0.03 -4.06,0.1l-3.13 17.73c-0.93,5.11 -1.49,8.82 -1.69,11.14l8.23 0c4.16,0 7.78,-0.1 10.87,-0.31 3.08,-0.19 5.19,-0.46 6.3,-0.79 1.13,-0.32 1.96,-0.81 2.48,-1.49 0.52,-0.66 1.17,-2.42 1.93,-5.29 0.17,-0.72 0.59,-2.15 1.29,-4.26l0.41 -0.39 2.92 0 0.34 0.39 -3.31 16.88 -0.54 0.46c-5.29,-0.1 -8.91,-0.15 -10.85,-0.15l-21.84 -0.2c-5.02,0 -10.82,0.1 -17.38,0.31l-0.35 -0.36zm71.75 -69.87c3.97,0.24 8.82,0.36 14.57,0.36 4.82,0 9.55,-0.09 14.2,-0.26 2.69,-0.07 5.05,-0.1 7.13,-0.1 4.73,0 8.47,0.64 11.22,1.91 2.75,1.27 4.95,3.21 6.61,5.81 1.66,2.62 2.47,5.71 2.47,9.31 0,6.76 -2.48,12.51 -7.45,17.24 -4.95,4.72 -10.83,7.08 -17.59,7.08 -3.2,0 -6.56,-0.64 -10.06,-1.89l-0.44 -3.16 0.31 -0.41c2.5,0.93 4.9,1.39 7.17,1.39 2.94,0 5.54,-0.95 7.81,-2.84 2.25,-1.89 3.96,-4.41 5.09,-7.52 1.15,-3.13 1.72,-6.3 1.72,-9.53 0,-4.14 -1.08,-7.28 -3.25,-9.47 -2.17,-2.18 -5.37,-3.26 -9.64,-3.26 -1.52,0 -4.01,0.26 -7.49,0.78 -1.22,5.98 -2.28,11.71 -3.21,17.19l-3.26 18.76c-1.27,7.07 -2.33,13.84 -3.23,20.32 -0.1,0.69 -0.15,1.37 -0.15,2.03 0,0.88 0.29,1.57 0.83,2.04 0.54,0.49 1.62,0.78 3.25,0.88l5.24 0.29 0.36 0.41 -0.3 2.47 -0.44 0.46c-4.82,-0.24 -9.89,-0.36 -15.21,-0.36 -6.3,0 -11.85,0.12 -16.63,0.36l-0.34 -0.41 0.29 -2.47 0.44 -0.46c0.3,-0.03 1.06,-0.08 2.28,-0.15 2.77,-0.09 4.44,-0.34 5,-0.71 0.56,-0.39 1.05,-1.08 1.47,-2.08 0.41,-1.01 1.29,-5.42 2.64,-13.25l4.61 -26.39c1.67,-9.77 2.52,-15.73 2.52,-17.88 0,-0.59 -0.1,-1.07 -0.32,-1.44 -0.22,-0.36 -0.57,-0.64 -1.07,-0.84 -0.49,-0.19 -1.52,-0.34 -3.08,-0.44l-4.55 -0.26 -0.35 -0.39 0.41 -2.67 0.44 -0.46zm111.96 30.66c2.45,-13.96 3.67,-22.04 3.67,-24.22 0,-0.63 -0.14,-1.12 -0.39,-1.49 -0.27,-0.36 -0.67,-0.62 -1.22,-0.79 -0.54,-0.15 -1.54,-0.29 -2.99,-0.39l-4.46 -0.26 -0.36 -0.39 0.41 -2.72 0.44 -0.41c3.84,0.24 8.47,0.36 13.91,0.36 4.26,0 10.19,-0.12 17.78,-0.36l0.31 0.41 -0.46 2.72 -0.44 0.39c-3.73,0.14 -5.85,0.27 -6.35,0.41 -0.52,0.14 -0.95,0.36 -1.3,0.66 -0.34,0.32 -0.64,0.78 -0.91,1.37 -0.39,0.98 -1.08,4.04 -2.08,9.16l-6.39 37.08c-1.01,6.2 -1.54,10.06 -1.54,11.55 0,1.01 0.34,1.76 1.01,2.2 0.69,0.44 1.78,0.71 3.25,0.78l5.06 0.24 0.36 0.41 -0.31 2.47 -0.44 0.46c-3.84,-0.24 -8.91,-0.36 -15.21,-0.36 -6,0 -11.54,0.12 -16.63,0.36l-0.34 -0.41 0.29 -2.47 0.44 -0.46c0.31,-0.03 1.07,-0.08 2.28,-0.15 2.74,-0.09 4.39,-0.32 4.99,-0.69 0.57,-0.36 1.07,-1.08 1.49,-2.18 0.41,-1.08 1.12,-4.48 2.15,-10.19l3.21 -18.27 -13.91 -0.05 -15.25 0.05c-2.94,16.56 -4.41,26 -4.41,28.28 0,1.01 0.36,1.76 1.05,2.2 0.69,0.44 1.74,0.71 3.16,0.78l5.11 0.24 0.34 0.41 -0.29 2.47 -0.46 0.46c-4.28,-0.24 -9.35,-0.36 -15.2,-0.36 -6,0 -11.56,0.12 -16.63,0.36l-0.36 -0.41 0.26 -2.47 0.49 -0.46c0.31,-0.03 1.07,-0.08 2.28,-0.15 2.77,-0.09 4.43,-0.32 4.97,-0.69 0.54,-0.36 1.03,-1.08 1.47,-2.15 0.42,-1.07 1.32,-5.44 2.67,-13.1l4.55 -26.3c1.72,-9.9 2.58,-15.92 2.58,-18.07 0,-0.66 -0.14,-1.17 -0.37,-1.54 -0.25,-0.36 -0.64,-0.62 -1.2,-0.79 -0.54,-0.15 -1.54,-0.29 -2.99,-0.39l-4.44 -0.26 -0.36 -0.39 0.41 -2.72 0.44 -0.41c3.96,0.24 8.61,0.36 13.91,0.36 3.46,0 9.4,-0.12 17.78,-0.36l0.29 0.41 -0.44 2.72 -0.44 0.39c-3.63,0.14 -5.71,0.26 -6.24,0.37 -0.54,0.12 -1.02,0.37 -1.44,0.74 -0.44,0.39 -0.84,1.17 -1.25,2.33 -0.39,1.17 -1.03,4.33 -1.93,9.48l-2.52 14.21c6.52,0.22 11.43,0.34 14.7,0.34l14.45 -0.34zm23.17 39.62l-0.34 -0.41 0.31 -2.47 0.44 -0.46c0.29,-0.03 1.05,-0.08 2.28,-0.15 2.77,-0.09 4.43,-0.32 4.97,-0.69 0.54,-0.36 1.03,-1.07 1.47,-2.13 0.42,-1.05 1.3,-5.39 2.62,-13.01l4.6 -26.35c1.72,-9.94 2.58,-15.97 2.58,-18.12 0,-0.59 -0.12,-1.07 -0.32,-1.44 -0.22,-0.36 -0.57,-0.64 -1.06,-0.84 -0.51,-0.19 -1.52,-0.34 -3.08,-0.44l-4.56 -0.26 -0.34 -0.39 0.39 -2.67 0.46 -0.46c4.48,0.24 9.7,0.36 15.65,0.36 2.43,0 7.77,-0.12 16.04,-0.36l0.29 0.41 -0.44 2.72 -0.44 0.39c-3.77,0.14 -5.88,0.27 -6.34,0.41 -0.54,0.15 -0.98,0.39 -1.32,0.69 -0.36,0.29 -0.66,0.76 -0.91,1.39 -0.44,1.05 -1.17,4.28 -2.18,9.65l-6.49 37.59c-0.9,5.64 -1.34,9.14 -1.34,10.5 0,1.05 0.34,1.79 1.03,2.23 0.69,0.42 1.74,0.68 3.13,0.74l5.16 0.24 0.34 0.41 -0.29 2.47 -0.46 0.46c-3.82,-0.24 -9.26,-0.36 -16.3,-0.36 -5.41,0 -10.6,0.12 -15.55,0.36zm41.46 -0.05l-0.35 -0.36 0.35 -2.62 0.49 -0.46 1.44 -0.39c2.04,-0.46 3.3,-0.95 3.73,-1.45 0.44,-0.52 1.12,-3.21 2.03,-8.1 0.91,-4.9 2.5,-13.96 4.78,-27.21 2.28,-13.27 3.41,-20.98 3.41,-23.16 0,-0.83 -0.2,-1.42 -0.63,-1.81 -0.41,-0.37 -0.91,-0.61 -1.5,-0.69 -0.59,-0.09 -2.89,-0.24 -6.88,-0.47l-0.35 -0.39 0.41 -2.72 0.44 -0.41c4.43,0.24 9.55,0.36 15.35,0.36 0.27,0 2.43,-0.07 6.49,-0.2 3.94,-0.14 7.86,-0.2 11.78,-0.2 3.08,0 5.83,0.22 8.25,0.62 2.43,0.41 4.61,1.25 6.56,2.5 1.96,1.25 3.41,2.81 4.36,4.65 0.96,1.86 1.44,3.96 1.44,6.29 0,1.96 -0.34,3.84 -1.03,5.68 -0.69,1.83 -1.72,3.51 -3.08,5.07 -1.35,1.55 -2.96,2.89 -4.83,3.99 -1.86,1.1 -3.35,1.84 -4.44,2.2 -1.12,0.37 -3.57,1.05 -7.35,2.03 6.63,0.66 11.29,2.32 13.96,4.93 2.67,2.62 4.01,6.05 4.01,10.28 0,6.27 -2.75,11.56 -8.3,15.87 -5.53,4.31 -12.29,6.46 -20.27,6.46 -2.25,0 -4.94,-0.08 -8.08,-0.24 -3.7,-0.24 -6.53,-0.36 -8.47,-0.36 -4.95,0 -9.52,0.1 -13.71,0.31zm24.51 -38.54c1.08,0.07 2.35,0.1 3.77,0.1 4.09,0 7.17,-0.3 9.24,-0.95 2.08,-0.62 3.9,-1.6 5.46,-2.96 1.54,-1.35 2.79,-3.25 3.73,-5.65 0.93,-2.42 1.4,-4.87 1.4,-7.38 0,-2.87 -1,-5.26 -2.99,-7.18 -2,-1.91 -5.51,-2.87 -10.51,-2.87 -1.76,0 -3.55,0.1 -5.41,0.31 -0.13,1.03 -0.84,4.92 -2.13,11.68l-2.57 14.91zm-5.39 33.08c5.27,0.83 9.09,1.25 11.42,1.25 5.19,0 8.91,-1.88 11.17,-5.61 2.27,-3.72 3.4,-7.74 3.4,-12.02 0,-2.62 -0.54,-4.92 -1.59,-6.95 -1.06,-2.01 -2.62,-3.41 -4.7,-4.23 -2.1,-0.81 -5.36,-1.22 -9.82,-1.22 -1.77,0.04 -3.55,0.07 -5.34,0.1l-1.87 11.49c-1.13,6.56 -2.01,12.29 -2.67,17.17zm119.87 0.36l0.36 0.39c-2.64,8.31 -4.95,15.97 -6.93,22.94l-5.36 1.93 -0.64 -0.31c0.86,-4.44 1.29,-8.87 1.29,-13.27 0,-1.42 -0.2,-2.7 -0.61,-3.89 -0.42,-1.17 -1.12,-1.96 -2.11,-2.37 -0.98,-0.42 -2.57,-0.62 -4.75,-0.62l-34.26 0c-10.17,0 -17.46,0.12 -21.84,0.36l-0.36 -0.41 0.31 -2.47 0.44 -0.46c0.73,-0.07 1.94,-0.13 3.67,-0.2 1.78,-0.05 2.99,-0.32 3.62,-0.76 0.63,-0.44 1.13,-1.2 1.54,-2.25 0.39,-1.07 1.27,-5.46 2.62,-13.22l4.55 -26.2c1.69,-9.74 2.53,-15.68 2.53,-17.83 0,-0.59 -0.12,-1.07 -0.32,-1.44 -0.22,-0.36 -0.57,-0.64 -1.06,-0.84 -0.51,-0.19 -1.52,-0.34 -3.08,-0.44l-4.55 -0.26 -0.36 -0.39 0.41 -2.67 0.44 -0.46c4.5,0.24 9.7,0.36 15.65,0.36 2.43,0 7.79,-0.12 16.04,-0.36l0.29 0.41 -0.44 2.72 -0.44 0.39c-3.77,0.14 -5.88,0.27 -6.34,0.41 -0.54,0.14 -0.96,0.36 -1.32,0.66 -0.34,0.32 -0.64,0.79 -0.91,1.42 -0.44,1.02 -1.13,4.14 -2.08,9.35 -0.2,1.1 -1.34,7.62 -3.41,19.57l-3.23 18.61c-0.95,6.12 -1.44,9.41 -1.44,9.91 0,0.79 0.2,1.27 0.59,1.44 0.41,0.17 1.59,0.25 3.57,0.25l18.63 0c2.35,0 3.78,-0.17 4.33,-0.52 0.54,-0.34 1,-1.01 1.37,-2.01 0.36,-0.98 1.27,-5.56 2.72,-13.71l4.51 -25.71c1.54,-8.94 2.32,-14.5 2.32,-16.68 0,-0.66 -0.13,-1.17 -0.39,-1.54 -0.27,-0.36 -0.67,-0.62 -1.22,-0.79 -0.54,-0.15 -1.54,-0.29 -2.99,-0.39l-4.46 -0.26 -0.34 -0.39 0.39 -2.67 0.44 -0.46c4.53,0.24 9.75,0.36 15.65,0.36 2.48,0 7.83,-0.12 16.04,-0.36l0.31 0.41 -0.44 2.72 -0.41 0.39c-3.7,0.14 -5.8,0.26 -6.29,0.37 -0.49,0.12 -0.93,0.34 -1.3,0.64 -0.39,0.32 -0.71,0.81 -0.98,1.47 -0.46,1.02 -1.22,4.51 -2.27,10.5l-3.23 18.07 -3.03 17.88 -1.18 7.88c-0.24,1.01 -0.34,1.79 -0.34,2.32 0,0.86 0.27,1.49 0.83,1.89 0.57,0.39 1.72,0.59 3.48,0.59l5.78 0zm5.44 5.16l-0.34 -0.41 0.31 -2.47 0.44 -0.46c0.29,-0.03 1.05,-0.08 2.28,-0.15 2.77,-0.09 4.43,-0.32 4.97,-0.69 0.54,-0.36 1.03,-1.07 1.47,-2.13 0.42,-1.05 1.3,-5.39 2.62,-13.01l4.6 -26.35c1.72,-9.94 2.58,-15.97 2.58,-18.12 0,-0.59 -0.12,-1.07 -0.32,-1.44 -0.22,-0.36 -0.57,-0.64 -1.06,-0.84 -0.51,-0.19 -1.52,-0.34 -3.08,-0.44l-4.56 -0.26 -0.34 -0.39 0.39 -2.67 0.46 -0.46c4.48,0.24 9.7,0.36 15.65,0.36 2.43,0 7.77,-0.12 16.04,-0.36l0.29 0.41 -0.44 2.72 -0.44 0.39c-3.77,0.14 -5.88,0.27 -6.34,0.41 -0.54,0.15 -0.98,0.39 -1.32,0.69 -0.36,0.29 -0.66,0.76 -0.91,1.39 -0.44,1.05 -1.17,4.28 -2.18,9.65l-6.49 37.59c-0.9,5.64 -1.34,9.14 -1.34,10.5 0,1.05 0.34,1.79 1.03,2.23 0.69,0.42 1.74,0.68 3.13,0.74l5.16 0.24 0.34 0.41 -0.29 2.47 -0.46 0.46c-3.82,-0.24 -9.26,-0.36 -16.3,-0.36 -5.41,0 -10.6,0.12 -15.55,0.36z"/>
   <path class="fil2" d="M679.61 1649.52l-0.43 -0.45 0.98 -3.22 0.79 -0.53c7.53,-0.14 12.28,-0.47 14.24,-0.96 0.57,-0.16 1.15,-0.49 1.72,-1.02 0.6,-0.51 1.1,-1.37 1.51,-2.55 0.84,-2.49 2.47,-9.34 4.84,-20.53l5.63 -26.62c1.68,-7.95 2.59,-12.56 2.73,-13.86 -0.79,0.41 -3.95,1.65 -9.49,3.67l-16.57 6.16 -1.27 -0.86 2.4 -7.89c12.08,-2.57 21.72,-5.06 28.89,-7.5 7.19,-2.43 11.75,-4.22 13.66,-5.38l2.62 1.61c-0.67,1.96 -2.85,11.74 -6.55,29.32l-7.1 32.84c-0.98,4.34 -1.46,7.4 -1.46,9.21 0,1.41 0.48,2.41 1.46,3.02 0.98,0.59 3.5,0.96 7.55,1.14 4.05,0.18 7.26,0.26 9.66,0.26l0.48 0.53 -0.91 3.1 -0.7 0.51 -2.37 -0.12c-0.62,-0.04 -4.65,-0.12 -12.08,-0.26 -7.46,-0.14 -11.68,-0.2 -12.66,-0.2 -8.79,0 -18,0.2 -27.59,0.57zm73.38 -0.06c-0.07,-1.18 -0.55,-3.2 -1.44,-6.07 -0.86,-2.84 -1.6,-4.89 -2.21,-6.12l3.31 -1.31c3.35,6.32 8.8,9.48 16.28,9.48 4.36,0 8.2,-1.18 11.48,-3.53 3.31,-2.36 6.26,-6.28 8.87,-11.78 2.59,-5.52 4.77,-12.09 6.57,-19.76 -6.71,6.44 -13.69,9.66 -20.95,9.66 -6.11,0 -11.22,-1.69 -15.27,-5.05 -4.05,-3.38 -6.06,-8.42 -6.06,-15.13 0,-3.71 0.65,-7.24 1.92,-10.56 1.29,-3.32 3.12,-6.12 5.44,-8.42 2.35,-2.3 5.44,-4.49 9.25,-6.61 3.81,-2.1 7.22,-3.65 10.19,-4.65 2.97,-1 6.33,-1.49 10.07,-1.49 5.11,0 9.68,1.06 13.76,3.18 4.08,2.14 7.05,5.26 8.89,9.38 1.84,4.12 2.78,8.63 2.78,13.54 0,4.79 -0.74,9.93 -2.23,15.45 -1.46,5.49 -3.91,10.99 -7.34,16.47 -3.4,5.47 -7.65,10.19 -12.68,14.11 -5.03,3.93 -9.88,6.77 -14.53,8.54 -4.68,1.77 -9.42,2.65 -14.29,2.65 -3.47,0 -7.41,-0.65 -11.82,-1.96zm17.93 -50.78c0,4.06 1.08,7.22 3.29,9.46 2.21,2.26 5.11,3.38 8.72,3.38 3.07,0 5.83,-0.9 8.2,-2.67 2.4,-1.79 4.15,-4.59 5.25,-8.44 1.08,-3.83 1.63,-7.75 1.63,-11.78 0,-2.77 -0.41,-5.34 -1.25,-7.74 -0.86,-2.39 -2.28,-4.16 -4.27,-5.3 -1.99,-1.12 -4.22,-1.69 -6.69,-1.69 -2.35,0 -4.46,0.47 -6.33,1.43 -1.87,0.96 -3.38,2.39 -4.53,4.32 -1.15,1.9 -2.11,4.32 -2.93,7.2 -0.79,2.9 -1.17,5.98 -1.17,9.24l0.07 2.57zm113.42 -20.8l-1.13 0.33c-3.29,-2.67 -7.31,-4.02 -12.08,-4.02 -7.26,0 -13.23,3.26 -17.93,9.75 -4.72,6.5 -8.15,14.88 -10.31,25.16 6.52,-6.1 13.73,-9.15 21.65,-9.15 5.99,0 11,1.61 15.03,4.85 4.03,3.24 6.04,7.81 6.04,13.72 0,3.85 -0.77,7.52 -2.25,11.05 -1.51,3.51 -3.26,6.38 -5.3,8.6 -2.04,2.2 -4.84,4.42 -8.44,6.63 -3.57,2.22 -6.98,3.89 -10.21,4.97 -3.24,1.1 -6.86,1.65 -10.88,1.65 -5.59,0 -10.33,-1.1 -14.29,-3.3 -3.96,-2.22 -6.83,-5.3 -8.58,-9.26 -1.75,-3.97 -2.63,-8.52 -2.63,-13.66 0,-4.99 0.74,-10.03 2.18,-15.15 1.46,-5.12 3.26,-9.56 5.44,-13.35 2.18,-3.77 4.96,-7.48 8.32,-11.15 3.38,-3.67 7.38,-6.89 12.06,-9.7 4.65,-2.79 9.09,-4.83 13.31,-6.12 4.22,-1.28 8.29,-1.92 12.23,-1.92 3.5,0 7.14,0.61 10.89,1.85l-3.09 8.22zm-44.11 53.76c0,9.48 4.03,14.21 12.08,14.21 5.44,0 9.37,-2.67 11.84,-7.97 2.45,-5.32 3.67,-10.78 3.67,-16.41 0,-5.06 -1.08,-8.6 -3.29,-10.62 -2.2,-2 -5.01,-3.02 -8.44,-3.02 -5.15,0 -9.08,2.22 -11.8,6.65 -2.71,4.42 -4.08,10.15 -4.08,17.16zm49.46 17.72l-0.5 -0.53 0.5 -2.71c0.55,-0.53 2.71,-2.24 6.45,-5.11 5.3,-4.06 11.41,-9.3 18.34,-15.74 6.92,-6.42 12.29,-12.5 16.11,-18.27 3.81,-5.77 5.73,-11.01 5.73,-15.74 0,-3.87 -1.2,-6.93 -3.62,-9.23 -2.42,-2.28 -6.02,-3.41 -10.86,-3.41 -3.17,0 -5.85,0.45 -8.03,1.35 -2.18,0.9 -3.98,2.1 -5.37,3.61 -1.41,1.53 -3.16,3.91 -5.27,7.17l-0.84 0.35 -3.31 -0.92 -0.21 -0.63 7.82 -15.53c3.5,-2.57 6.93,-4.26 10.28,-5.04 3.33,-0.78 6.66,-1.18 9.92,-1.18 5.39,0 10.16,0.83 14.34,2.45 4.17,1.63 7.36,3.94 9.57,6.99 2.18,3.02 3.28,6.67 3.28,10.97 0,2.2 -0.24,4.14 -0.74,5.85 -0.48,1.69 -1.34,3.53 -2.57,5.47 -1.2,1.96 -3.24,4.42 -6.06,7.36 -2.83,2.96 -5.66,5.61 -8.49,7.95 -2.85,2.33 -7.36,5.98 -13.52,10.97l-13.57 10.64 0.07 0.69 7.6 0.06 17.98 -0.16c5.94,-0.04 9.9,-0.14 11.87,-0.28 1.96,-0.12 4.19,-0.39 6.74,-0.77l1.05 0.87c-1.03,1.81 -2.54,5.83 -4.51,12.07l-0.69 0.45c-12.78,-0.29 -22.46,-0.45 -29.08,-0.45l-30.4 0.41z"/>
   <path class="fil2" d="M122.68 1095.79l3.8 8.41 -25.51 11.54c6.19,6.26 10.57,12.22 13.12,17.86 1.99,4.41 2.72,8.77 2.18,13.06 -0.52,4.3 -2.13,7.74 -4.78,10.32 -2.66,2.57 -6.54,5.02 -11.67,7.34l-18.63 8.43 -3.8 -8.4 17.85 -8.08c6.91,-3.13 10.9,-6.44 11.94,-9.95 1.03,-3.5 0.74,-7.03 -0.86,-10.57 -2.67,-5.91 -6.79,-11.52 -12.35,-16.84l-30.83 13.94 -3.8 -8.41 63.34 -28.65zm-5.43 -14.32l-65.85 22.26 -16.07 -47.55 7.72 -2.61 13.12 38.81 20.24 -6.84 -12.28 -36.33 7.73 -2.61 12.28 36.33 22.44 -7.58 -13.65 -40.38 7.73 -2.61 16.6 49.11zm-20.42 -61.28l-67.73 15.63 -5.9 -25.57c-1.04,-4.49 -1.61,-7.98 -1.73,-10.46 -0.22,-3.45 0.2,-6.49 1.22,-9.1 1.04,-2.61 2.8,-4.93 5.27,-6.95 2.47,-2.02 5.39,-3.4 8.75,-4.18 5.74,-1.32 11.04,-0.62 15.86,2.14 4.83,2.73 8.35,8.92 10.56,18.5l4.01 17.38 27.62 -6.38 2.07 8.99zm-37.65 -0.77l-4.04 -17.5c-1.34,-5.8 -3.36,-9.65 -6.08,-11.6 -2.72,-1.93 -6.03,-2.44 -9.95,-1.54 -2.82,0.65 -5.09,1.92 -6.78,3.82 -1.69,1.9 -2.59,4.1 -2.7,6.58 -0.05,1.6 0.4,4.44 1.33,8.5l4 17.33 24.22 -5.59zm22.08 -62.59l-68.99 8.54 -1.13 -9.15 28.42 -3.52 -4.41 -35.65 -28.42 3.52 -1.13 -9.16 68.99 -8.54 1.13 9.16 -32.47 4.02 4.41 35.65 32.47 -4.02 1.13 9.15zm-8.39 -70.77l-69.31 5.27 -0.7 -9.2 69.31 -5.27 0.7 9.2zm-2.15 -24.95l-69.49 2 -0.75 -26.08c-0.15,-5.31 0.42,-9.58 1.74,-12.84 1.31,-3.24 3.41,-5.81 6.29,-7.71 2.86,-1.91 5.89,-2.9 9.09,-3 2.96,-0.08 5.78,0.64 8.45,2.17 2.67,1.53 4.85,3.89 6.57,7.1 1.11,-4.24 3.12,-7.54 6.03,-9.87 2.89,-2.35 6.37,-3.58 10.42,-3.7 3.27,-0.09 6.31,0.52 9.15,1.81 2.84,1.29 5.04,2.93 6.62,4.91 1.56,1.98 2.78,4.49 3.65,7.51 0.87,3.03 1.36,6.76 1.49,11.19l0.76 26.51zm-40.54 -8.06l-0.43 -15.03c-0.12,-4.08 -0.47,-6.99 -1.06,-8.74 -0.76,-2.32 -1.98,-4.06 -3.63,-5.19 -1.65,-1.13 -3.69,-1.67 -6.13,-1.6 -2.31,0.07 -4.33,0.67 -6.05,1.84 -1.73,1.15 -2.9,2.77 -3.49,4.84 -0.59,2.07 -0.81,5.61 -0.67,10.59l0.4 13.89 21.06 -0.61zm32.13 -0.92l-0.5 -17.31c-0.09,-2.97 -0.26,-5.06 -0.52,-6.27 -0.43,-2.09 -1.11,-3.85 -2.05,-5.25 -0.93,-1.4 -2.26,-2.52 -3.98,-3.4 -1.73,-0.87 -3.7,-1.27 -5.91,-1.21 -2.6,0.08 -4.83,0.8 -6.72,2.2 -1.89,1.38 -3.18,3.26 -3.89,5.65 -0.71,2.37 -1,5.78 -0.87,10.19l0.46 16.08 23.97 -0.69zm7 -56.37l-69.31 -5.27 3.81 -50.05 8.13 0.62 -3.11 40.85 21.3 1.62 2.91 -38.24 8.13 0.62 -2.91 38.24 23.62 1.8 3.24 -42.5 8.13 0.62 -3.93 51.69zm-64.56 -77.2l1.65 -9.08 60.37 10.99 6.46 -35.53 -60.37 -10.99 1.65 -9.08 60.37 10.98 1.13 -6.21 27.03 4.92 -1.46 8.02 -19.01 -3.46 -9.44 51.87 -68.39 -12.44zm13.89 -74.04l2.08 -8.98 28.84 6.69 3.74 -16.12c1.75,-7.53 3.89,-12.79 6.43,-15.77 2.55,-2.97 5.51,-4.84 8.86,-5.62 3.37,-0.77 6.66,-0.78 9.86,-0.04 5.25,1.22 9.44,4.07 12.55,8.56 3.13,4.48 3.56,11.57 1.3,21.3l-5.96 25.69 -67.71 -15.71zm62.14 4.95l3.8 -16.36c1.54,-6.64 1.36,-11.23 -0.52,-13.79 -1.88,-2.55 -4.5,-4.22 -7.83,-4.99 -2.7,-0.62 -5.16,-0.43 -7.4,0.59 -2.23,1.01 -3.91,2.68 -5.03,4.98 -1.12,2.3 -2.35,6.35 -3.7,12.15l-2.78 11.98 23.46 5.44zm-44.61 -72.94l2.94 -8.74 28.89 9.71c1.34,-3.97 1.5,-7.04 0.49,-9.17 -1,-2.15 -4.02,-5.45 -9.07,-9.94 -3.73,-3.29 -6.28,-5.82 -7.65,-7.61 -1.4,-1.79 -2.33,-3.98 -2.81,-6.58 -0.48,-2.58 -0.28,-5.21 0.61,-7.85 1.13,-3.36 1.75,-5.11 1.88,-5.28l7.54 2.54c-0.1,0.31 -0.31,0.88 -0.63,1.73 -0.36,0.95 -0.57,1.53 -0.64,1.75 -0.93,2.78 -0.96,5.07 -0.06,6.88 0.89,1.84 3.24,4.37 7.05,7.63 4.84,4.08 7.74,7.14 8.68,9.17 0.93,2 1.48,4.23 1.64,6.64 2.59,-3.85 7.95,-6.73 16.03,-8.62l26.5 -6.2 -3.64 10.83 -21.57 5.06c-5.97,1.36 -10.23,2.74 -12.75,4.15 -2.54,1.42 -4.34,3.73 -5.43,6.97l30.83 10.36 -2.94 8.74 -65.89 -22.15zm20.53 -60l3.42 -7.61 50.2 22.58 -35.03 -56.33 3.74 -8.31 63.4 28.51 -3.42 7.62 -50.07 -22.52 34.93 56.18 -3.78 8.4 -63.4 -28.51zm31.31 -70.16l4.17 -7.23 47.69 27.5 -29.2 -59.55 4.55 -7.89 60.22 34.72 -4.17 7.23 -47.56 -27.42 29.13 59.4 -4.6 7.98 -60.22 -34.72zm2.84 -38.37l2.91 -5.05c3.23,2.4 5.16,5.2 5.8,8.37 0.65,3.18 -0.03,6.5 -2.04,9.99 -2.02,3.51 -4.56,5.78 -7.6,6.81 -3.05,1.02 -6.45,0.75 -10.17,-0.86l2.91 -5.05c2.11,0.71 3.97,0.76 5.55,0.15 1.59,-0.59 2.94,-1.87 4.05,-3.79 1.29,-2.23 1.81,-4.17 1.55,-5.83 -0.24,-1.65 -1.23,-3.25 -2.96,-4.75zm78.08 -26.89c-9.39,-6.68 -14.94,-14.45 -16.65,-23.28 -1.72,-8.83 0.27,-17.23 5.96,-25.22 3.73,-5.23 8.33,-9.05 13.82,-11.48 5.48,-2.42 11.24,-3.14 17.27,-2.16 6.02,0.97 11.87,3.47 17.53,7.49 5.73,4.08 10.05,8.9 12.91,14.44 2.89,5.55 3.97,11.27 3.27,17.17 -0.7,5.92 -2.8,11.33 -6.3,16.25 -3.8,5.34 -8.48,9.18 -14.05,11.55 -5.55,2.36 -11.33,3.05 -17.33,2.04 -5.98,-1 -11.46,-3.27 -16.43,-6.81zm5.65 -7.66c6.81,4.85 13.48,6.84 20.01,5.96 6.52,-0.88 11.76,-4.08 15.71,-9.61 4.02,-5.64 5.33,-11.67 3.98,-18.14 -1.36,-6.45 -5.68,-12.27 -12.96,-17.45 -4.6,-3.28 -9.17,-5.36 -13.71,-6.25 -4.53,-0.88 -8.82,-0.5 -12.83,1.15 -4.03,1.66 -7.37,4.35 -10.02,8.08 -3.77,5.3 -5.2,11.15 -4.29,17.57 0.92,6.41 5.62,12.64 14.12,18.7zm16.83 -81.4l29.72 -33.99 6.14 5.37 -23.64 27.04 16.15 14.12 10.93 -12.5c4.04,-4.62 7.68,-7.9 10.96,-9.85 3.26,-1.96 6.83,-2.69 10.71,-2.2 3.87,0.48 7.43,2.15 10.67,4.98 2.64,2.31 4.6,5.06 5.86,8.24 1.27,3.2 1.61,6.59 1.02,10.19 -0.58,3.6 -3.34,8.22 -8.25,13.83l-17.93 20.5 -52.33 -45.76zm52.48 33.64l12.11 -13.85c3.27,-3.74 4.96,-7.2 5.08,-10.41 0.11,-3.2 -1.35,-6.13 -4.38,-8.78 -2.17,-1.9 -4.44,-2.94 -6.83,-3.13 -2.39,-0.2 -4.65,0.45 -6.78,1.93 -2.15,1.5 -5.22,4.55 -9.24,9.14l-8.09 9.24 18.12 15.85zm-1.79 -88.44l31.36 -30 48.05 50.24 -6.66 6.37 -42.41 -44.34 -18.03 17.25 24.75 25.88c5.03,5.26 8.47,9.34 10.31,12.25 1.86,2.93 2.63,5.82 2.36,8.7 -0.28,2.86 -1.65,5.47 -4.06,7.78 -1.47,1.41 -3.53,2.79 -6.17,4.15l-4.44 -7.03c1.62,-0.48 2.83,-1.09 3.6,-1.83 1.5,-1.43 2.09,-3.08 1.76,-4.93 -0.34,-1.85 -2.51,-4.88 -6.54,-9.08l-33.87 -35.41zm85 15.1l-22.26 -71.05 7.93 -6.28 65.35 36.92 -8.21 6.5 -19.39 -11.52 -22.95 18.17 7.17 21.2 -7.65 6.06zm-2.04 -34.79l18.57 -14.71 -17.65 -10.6c-5.35,-3.24 -9.65,-6 -12.92,-8.28 2.06,4.14 3.83,8.42 5.3,12.87l6.7 20.73zm85.66 -56.18l9.03 -3c2.44,7.41 2.62,14.11 0.54,20.14 -2.08,6.03 -6.16,11 -12.26,14.9 -6.3,4.02 -12.25,6.02 -17.85,5.96 -5.59,-0.04 -10.97,-1.85 -16.14,-5.4 -5.17,-3.57 -9.55,-8.13 -13.12,-13.72 -3.89,-6.09 -6.13,-12.16 -6.7,-18.19 -0.57,-6.03 0.54,-11.6 3.33,-16.7 2.79,-5.1 6.77,-9.3 11.93,-12.59 5.87,-3.75 11.74,-5.4 17.63,-4.96 5.9,0.43 11.36,2.84 16.38,7.24l-6.46 6.66c-4.07,-3.39 -8.03,-5.24 -11.85,-5.53 -3.82,-0.31 -7.69,0.8 -11.6,3.3 -4.49,2.87 -7.56,6.35 -9.2,10.42 -1.64,4.08 -1.91,8.34 -0.81,12.75 1.1,4.43 2.88,8.56 5.34,12.43 3.18,4.98 6.68,8.87 10.49,11.65 3.82,2.8 7.84,4.13 12.07,4.02 4.23,-0.11 8.12,-1.3 11.67,-3.58 4.34,-2.77 7.19,-6.36 8.6,-10.77 1.4,-4.43 1.06,-9.43 -1.03,-15.05zm30.56 8.72l-31.36 -62.04 8.23 -4.16 12.92 25.56 32.06 -16.21 -12.92 -25.56 8.23 -4.16 31.36 62.04 -8.23 4.16 -14.76 -29.2 -32.06 16.2 14.76 29.2 -8.23 4.16zm36.75 -96.92l7.77 -3.05 20.11 51.24 14.34 -64.76 8.48 -3.33 25.39 64.71 -7.77 3.05 -20.06 -51.11 -14.3 64.59 -8.57 3.36 -25.39 -64.71zm67.92 -26.16l7.9 -2.71 17.88 52.06 17.12 -64.08 8.62 -2.96 22.58 65.74 -7.9 2.71 -17.83 -51.93 -17.08 63.91 -8.71 2.99 -22.58 -65.75zm27.36 -27.05l5.51 -1.89c0.85,3.93 0.47,7.32 -1.13,10.12 -1.6,2.82 -4.29,4.88 -8.11,6.19 -3.83,1.32 -7.23,1.35 -10.2,0.13 -2.97,-1.24 -5.35,-3.67 -7.1,-7.33l5.51 -1.89c1.13,1.92 2.5,3.18 4.08,3.77 1.59,0.6 3.45,0.52 5.54,-0.2 2.43,-0.83 4.1,-1.96 5,-3.37 0.91,-1.4 1.21,-3.25 0.89,-5.53zm88.42 66.33l-12.44 -68.39 9.07 -1.65 5.13 28.18 35.34 -6.43 -5.13 -28.18 9.08 -1.65 12.44 68.39 -9.08 1.65 -5.86 -32.19 -35.34 6.43 5.86 32.19 -9.07 1.65zm61.19 -10.83l21.31 -71.34 10.08 -0.77 33.5 67.16 -10.44 0.8 -9.62 -20.4 -29.19 2.22 -5.92 21.58 -9.73 0.74zm17.78 -29.98l23.62 -1.8 -8.69 -18.67c-2.62,-5.67 -4.64,-10.37 -6.07,-14.09 -0.61,4.59 -1.54,9.13 -2.81,13.63l-6.05 20.92zm54.05 24.02l1.98 -69.49 26.07 0.74c5.31,0.15 9.54,0.97 12.72,2.47 3.16,1.5 5.61,3.74 7.33,6.72 1.75,2.96 2.56,6.05 2.47,9.25 -0.08,2.96 -0.97,5.73 -2.65,8.31 -1.68,2.58 -4.16,4.62 -7.46,6.15 4.17,1.35 7.35,3.55 9.51,6.58 2.18,3.03 3.21,6.57 3.1,10.61 -0.09,3.27 -0.88,6.27 -2.33,9.03 -1.46,2.76 -3.22,4.86 -5.28,6.33 -2.06,1.45 -4.64,2.52 -7.7,3.21 -3.08,0.69 -6.82,0.97 -11.26,0.84l-26.51 -0.76zm10.37 -40.01l15.03 0.43c4.08,0.12 7.01,-0.07 8.79,-0.56 2.37,-0.63 4.16,-1.74 5.39,-3.33 1.23,-1.59 1.88,-3.59 1.95,-6.03 0.07,-2.31 -0.42,-4.37 -1.49,-6.15 -1.05,-1.79 -2.6,-3.05 -4.64,-3.76 -2.04,-0.7 -5.55,-1.13 -10.53,-1.27l-13.89 -0.4 -0.6 21.06zm-0.92 32.13l17.31 0.49c2.97,0.08 5.06,0.03 6.29,-0.16 2.11,-0.31 3.91,-0.89 5.36,-1.74 1.45,-0.85 2.65,-2.11 3.62,-3.78 0.97,-1.67 1.48,-3.61 1.55,-5.83 0.07,-2.6 -0.52,-4.87 -1.81,-6.83 -1.27,-1.96 -3.08,-3.36 -5.42,-4.2 -2.32,-0.84 -5.71,-1.33 -10.12,-1.45l-16.08 -0.46 -0.68 23.97zm100.77 13.4l-9.2 -0.7 2.12 -27.91c-8.46,2.42 -15.79,3.4 -21.97,2.94 -4.82,-0.37 -9,-1.82 -12.5,-4.36 -3.52,-2.53 -5.77,-5.58 -6.75,-9.15 -0.98,-3.56 -1.26,-8.15 -0.83,-13.76l1.55 -20.39 9.19 0.7 -1.49 19.54c-0.57,7.57 0.42,12.66 2.99,15.26 2.58,2.58 5.81,4.03 9.69,4.32 6.47,0.49 13.37,-0.42 20.7,-2.75l2.57 -33.74 9.2 0.7 -5.28 69.31zm7.52 0.44l38.68 -63.62 9.95 1.81 15.4 73.46 -10.3 -1.87 -4.14 -22.17 -28.8 -5.24 -11.19 19.38 -9.6 -1.75zm24.79 -24.5l23.31 4.24 -3.68 -20.26c-1.1,-6.15 -1.86,-11.21 -2.31,-15.17 -1.75,4.29 -3.8,8.44 -6.17,12.48l-11.15 18.71zm72.37 -27.63l41.77 11.77 -18.86 66.91 -8.88 -2.5 16.65 -59.06 -24.02 -6.77 -9.71 34.47c-1.98,7.01 -3.75,12.04 -5.32,15.11 -1.58,3.09 -3.67,5.22 -6.29,6.45 -2.61,1.21 -5.55,1.36 -8.77,0.45 -1.96,-0.55 -4.2,-1.62 -6.71,-3.2l3.8 -7.4c1.24,1.16 2.38,1.88 3.41,2.17 1.99,0.56 3.71,0.24 5.14,-0.99 1.42,-1.23 2.92,-4.64 4.5,-10.25l13.29 -47.16zm59.92 17.44l8.74 2.94 -9.44 28.06 15.69 5.27c7.33,2.47 12.35,5.11 15.07,7.92 2.71,2.82 4.29,5.95 4.74,9.36 0.44,3.43 0.14,6.71 -0.91,9.82 -1.72,5.11 -4.95,9 -9.73,11.66 -4.76,2.69 -11.86,2.43 -21.32,-0.75l-25 -8.41 22.15 -65.89zm-10.9 61.38l15.92 5.35c6.46,2.17 11.05,2.43 13.78,0.81 2.72,-1.63 4.63,-4.08 5.72,-7.31 0.88,-2.63 0.93,-5.1 0.12,-7.42 -0.79,-2.32 -2.29,-4.15 -4.47,-5.48 -2.18,-1.33 -6.09,-2.95 -11.74,-4.85l-11.66 -3.92 -7.67 22.82zm48.49 26.62l28.51 -63.4 8.41 3.78 -11.75 26.12 32.76 14.74 11.75 -26.12 8.41 3.78 -28.51 63.4 -8.41 -3.78 13.42 -29.84 -32.76 -14.73 -13.42 29.84 -8.41 -3.78zm77.46 -0.88c5.76,-9.98 12.95,-16.25 21.58,-18.81 8.63,-2.55 17.18,-1.38 25.67,3.52 5.57,3.21 9.8,7.43 12.75,12.65 2.93,5.22 4.2,10.89 3.8,16.99 -0.39,6.09 -2.32,12.15 -5.78,18.16 -3.51,6.1 -7.9,10.85 -13.14,14.24 -5.25,3.4 -10.84,5.03 -16.77,4.9 -5.96,-0.13 -11.55,-1.71 -16.78,-4.72 -5.67,-3.27 -9.95,-7.56 -12.84,-12.88 -2.88,-5.3 -4.13,-10.99 -3.69,-17.05 0.42,-6.05 2.16,-11.71 5.21,-17zm8.16 4.89c-4.18,7.25 -5.52,14.08 -4.02,20.49 1.5,6.41 5.18,11.32 11.07,14.71 6,3.46 12.13,4.19 18.44,2.22 6.29,-1.97 11.67,-6.83 16.13,-14.57 2.82,-4.89 4.46,-9.65 4.91,-14.24 0.45,-4.6 -0.35,-8.83 -2.37,-12.67 -2.04,-3.85 -5.03,-6.92 -9,-9.2 -5.64,-3.25 -11.6,-4.11 -17.9,-2.59 -6.29,1.53 -12.05,6.8 -17.26,15.84zm50.33 45.48l4.95 -6.96 21.51 15.32 -4.96 6.96 -21.51 -15.32zm60.88 -16.47l7.27 5.67 -18.75 24.04c3.3,2.58 6.14,3.75 8.49,3.51 2.36,-0.23 6.47,-1.99 12.39,-5.25 4.34,-2.43 7.57,-3.99 9.72,-4.69 2.15,-0.72 4.53,-0.88 7.14,-0.47 2.6,0.41 5.01,1.47 7.21,3.18 2.79,2.18 4.24,3.35 4.35,3.52l-4.9 6.28c-0.26,-0.2 -0.73,-0.59 -1.43,-1.17 -0.78,-0.65 -1.26,-1.04 -1.44,-1.18 -2.31,-1.8 -4.47,-2.59 -6.47,-2.34 -2.03,0.23 -5.2,1.61 -9.54,4.12 -5.46,3.21 -9.3,4.93 -11.53,5.15 -2.2,0.21 -4.49,-0.01 -6.81,-0.66 2.78,3.72 3.71,9.73 2.82,17.98l-2.94 27.05 -9.01 -7.03 2.39 -22.03c0.7,-6.08 0.81,-10.56 0.32,-13.4 -0.49,-2.87 -2.08,-5.33 -4.77,-7.43l-20.01 25.64 -7.27 -5.67 42.76 -54.8zm45.46 35.12l6.69 6.4 -13.08 46.62 43.84 -17.21 6.55 6.26 -56.19 21.1c-7.02,2.64 -12.02,4 -14.97,4.07 -2.95,0.06 -5.82,-1.24 -8.63,-3.93 -1.71,-1.63 -3.42,-4.03 -5.15,-7.21l5.43 -5.68c0.79,2.73 2.18,5.04 4.17,6.95 1.61,1.54 3.51,2.35 5.68,2.43 2.17,0.08 5.73,-1.06 10.69,-3.41l14.95 -56.38zm1.38 97.99l50.24 -48.05 18.14 18.97c3.19,3.33 5.46,6.04 6.84,8.11 1.95,2.86 3.15,5.68 3.6,8.44 0.44,2.78 0.11,5.67 -0.98,8.67 -1.09,3 -2.89,5.68 -5.39,8.06 -4.26,4.07 -9.17,6.17 -14.72,6.27 -5.55,0.12 -11.74,-3.4 -18.53,-10.51l-12.33 -12.89 -20.49 19.59 -6.37 -6.66zm32.76 -18.57l12.41 12.98c4.12,4.3 7.82,6.59 11.15,6.86 3.32,0.27 6.43,-0.98 9.34,-3.76 2.09,-2 3.39,-4.25 3.87,-6.75 0.48,-2.49 0.13,-4.85 -1.04,-7.04 -0.78,-1.4 -2.61,-3.62 -5.48,-6.62l-12.29 -12.85 -17.96 17.18zm59.66 89.67l3.87 8.69c-7.13,3.16 -13.79,3.99 -19.99,2.51 -6.21,-1.48 -11.56,-5.05 -16.03,-10.74 -4.62,-5.88 -7.19,-11.6 -7.69,-17.18 -0.51,-5.57 0.76,-11.1 3.79,-16.59 3.04,-5.5 7.15,-10.3 12.37,-14.4 5.68,-4.47 11.5,-7.29 17.44,-8.45 5.95,-1.15 11.6,-0.6 16.95,1.68 5.35,2.27 9.92,5.83 13.7,10.63 4.3,5.47 6.53,11.15 6.66,17.05 0.15,5.92 -1.71,11.58 -5.6,17.01l-7.26 -5.78c2.98,-4.38 4.43,-8.51 4.34,-12.33 -0.07,-3.83 -1.55,-7.57 -4.42,-11.22 -3.29,-4.18 -7.06,-6.91 -11.28,-8.13 -4.22,-1.23 -8.49,-1.08 -12.76,0.45 -4.3,1.53 -8.24,3.71 -11.84,6.54 -4.64,3.65 -8.17,7.52 -10.56,11.59 -2.41,4.08 -3.34,8.21 -2.82,12.41 0.52,4.2 2.09,7.95 4.7,11.27 3.18,4.04 7.04,6.53 11.56,7.5 4.54,0.96 9.49,0.13 14.88,-2.5zm18.25 9.77c9.71,-6.2 18.99,-8.44 27.82,-6.73 8.83,1.72 15.88,6.7 21.15,14.96 3.46,5.42 5.27,11.11 5.47,17.11 0.19,5.98 -1.29,11.6 -4.46,16.82 -3.15,5.22 -7.66,9.71 -13.51,13.45 -5.93,3.79 -12.02,5.98 -18.23,6.57 -6.23,0.6 -11.94,-0.54 -17.14,-3.4 -5.23,-2.86 -9.46,-6.84 -12.71,-11.93 -3.53,-5.52 -5.33,-11.3 -5.45,-17.35 -0.11,-6.04 1.41,-11.65 4.59,-16.83 3.17,-5.17 7.32,-9.4 12.46,-12.68zm4.99 8.11c-7.05,4.5 -11.39,9.94 -13.02,16.32 -1.63,6.38 -0.62,12.43 3.04,18.16 3.73,5.84 8.83,9.32 15.33,10.48 6.5,1.15 13.51,-0.68 21.03,-5.48 4.76,-3.04 8.41,-6.5 10.93,-10.37 2.52,-3.87 3.77,-7.99 3.74,-12.33 -0.03,-4.35 -1.28,-8.46 -3.74,-12.32 -3.5,-5.48 -8.4,-9 -14.69,-10.55 -6.29,-1.55 -13.83,0.48 -22.62,6.09zm7.18 76.57l62.04 -31.36 11.77 23.28c2.39,4.74 3.69,8.85 3.89,12.36 0.19,3.49 -0.62,6.71 -2.41,9.65 -1.77,2.94 -4.09,5.13 -6.96,6.58 -2.64,1.33 -5.51,1.88 -8.57,1.63 -3.06,-0.25 -6.05,-1.46 -8.96,-3.63 0.8,4.31 0.38,8.15 -1.26,11.5 -1.62,3.36 -4.25,5.95 -7.85,7.78 -2.92,1.47 -5.93,2.22 -9.05,2.26 -3.12,0.03 -5.81,-0.51 -8.08,-1.63 -2.26,-1.13 -4.43,-2.88 -6.49,-5.24 -2.07,-2.38 -4.11,-5.54 -6.1,-9.49l-11.97 -23.67zm40.12 -9.95l6.78 13.42c1.84,3.64 3.4,6.13 4.68,7.46 1.68,1.78 3.51,2.83 5.49,3.15 1.98,0.32 4.05,-0.05 6.23,-1.16 2.07,-1.04 3.64,-2.45 4.69,-4.24 1.08,-1.78 1.45,-3.74 1.1,-5.87 -0.35,-2.13 -1.65,-5.42 -3.9,-9.87l-6.27 -12.41 -18.8 9.5zm-28.68 14.5l7.81 15.45c1.34,2.65 2.39,4.47 3.14,5.45 1.28,1.71 2.65,3.01 4.08,3.88 1.44,0.87 3.12,1.33 5.05,1.38 1.93,0.05 3.89,-0.42 5.87,-1.42 2.32,-1.18 4.03,-2.78 5.14,-4.85 1.12,-2.05 1.49,-4.3 1.12,-6.76 -0.37,-2.44 -1.55,-5.65 -3.55,-9.6l-7.26 -14.35 -21.4 10.82zm82.09 28.85l3.04 7.78 -51.28 20.01 64.74 14.46 3.31 8.49 -64.75 25.28 -3.04 -7.78 51.15 -19.96 -64.57 -14.42 -3.35 -8.58 64.75 -25.28zm27.21 71.58l2.27 8.04 -52.98 14.94 63.02 20.68 2.47 8.77 -66.91 18.86 -2.27 -8.04 52.84 -14.9 -62.86 -20.63 -2.5 -8.86 66.91 -18.86zm25.48 28.83l1.58 5.61c-3.97,0.63 -7.33,0.06 -10.04,-1.69 -2.73,-1.75 -4.63,-4.56 -5.73,-8.44 -1.1,-3.89 -0.95,-7.3 0.44,-10.19 1.4,-2.9 3.97,-5.14 7.72,-6.68l1.58 5.61c-1.98,1.02 -3.32,2.32 -3.99,3.87 -0.69,1.55 -0.72,3.41 -0.11,5.54 0.7,2.48 1.72,4.21 3.09,5.18 1.35,0.98 3.18,1.39 5.47,1.2zm-0.52 71.41l1.65 9.08 -29.99 5.46c0.75,4.12 2.09,6.89 4.01,8.27 1.91,1.39 6.15,2.83 12.74,4.32 4.85,1.08 8.3,2.06 10.37,2.96 2.08,0.89 3.96,2.36 5.64,4.4 1.67,2.03 2.76,4.43 3.26,7.17 0.63,3.49 0.94,5.32 0.91,5.52l-7.83 1.43c-0.06,-0.32 -0.15,-0.93 -0.28,-1.82 -0.15,-1.01 -0.25,-1.62 -0.29,-1.84 -0.52,-2.88 -1.61,-4.9 -3.27,-6.05 -1.66,-1.18 -4.95,-2.26 -9.85,-3.27 -6.21,-1.24 -10.23,-2.51 -12.03,-3.83 -1.78,-1.3 -3.34,-2.99 -4.65,-5.02 -0.41,4.63 -3.71,9.74 -9.86,15.3l-20.2 18.23 -2.05 -11.24 16.44 -14.85c4.57,-4.07 7.63,-7.34 9.16,-9.79 1.54,-2.47 2,-5.36 1.39,-8.72l-32 5.82 -1.65 -9.08 68.39 -12.44zm-26.21 61.66c11.49,-0.88 20.73,1.54 27.7,7.22 6.97,5.68 10.82,13.41 11.57,23.18 0.49,6.41 -0.61,12.28 -3.26,17.66 -2.66,5.36 -6.62,9.61 -11.89,12.72 -5.25,3.11 -11.34,4.94 -18.26,5.47 -7.02,0.53 -13.42,-0.41 -19.17,-2.83 -5.77,-2.42 -10.27,-6.12 -13.5,-11.09 -3.25,-4.99 -5.1,-10.5 -5.56,-16.52 -0.5,-6.53 0.64,-12.48 3.4,-17.87 2.75,-5.37 6.75,-9.6 12,-12.66 5.24,-3.06 10.89,-4.82 16.98,-5.29zm0.56 9.5c-8.34,0.63 -14.74,3.38 -19.19,8.23 -4.45,4.85 -6.43,10.66 -5.91,17.44 0.52,6.9 3.38,12.38 8.56,16.48 5.18,4.08 12.22,5.79 21.13,5.11 5.63,-0.43 10.48,-1.75 14.53,-3.98 4.05,-2.22 7.1,-5.26 9.12,-9.1 2.03,-3.86 2.88,-8.06 2.53,-12.62 -0.49,-6.49 -3.14,-11.9 -7.95,-16.24 -4.81,-4.34 -12.41,-6.11 -22.82,-5.32zm-29.17 71.05l69.49 1.98 -0.39 13.78 -49.65 15.03c-4.62,1.39 -8.08,2.39 -10.38,3.02 2.5,0.87 6.18,2.22 11.04,4.04l47.85 18.1 -0.35 12.31 -69.49 -1.98 0.25 -8.83 58.13 1.66 -57.55 -21.94 0.24 -8.28 59.77 -18.37 -59.2 -1.69 0.25 -8.83zm65.29 89.9l-5.55 44.8 -8.09 -1 4.41 -35.65 -21.29 -2.64 -2.04 16.48c-0.75,6.09 -1.93,10.85 -3.55,14.3 -1.6,3.46 -4.14,6.06 -7.64,7.83 -3.48,1.77 -7.35,2.38 -11.63,1.86 -3.48,-0.43 -6.65,-1.6 -9.47,-3.54 -2.84,-1.93 -5.03,-4.55 -6.56,-7.87 -1.53,-3.3 -1.84,-8.67 -0.93,-16.08l3.35 -27.03 68.99 8.54zm-62.32 1.58l-2.26 18.26c-0.61,4.93 -0.07,8.75 1.63,11.47 1.7,2.71 4.55,4.31 8.55,4.81 2.86,0.35 5.32,-0.06 7.41,-1.24 2.09,-1.18 3.6,-2.98 4.53,-5.41 0.94,-2.44 1.77,-6.7 2.53,-12.75l1.51 -12.19 -23.9 -2.96zm-15.91 54.08l68.39 12.44 -1.65 9.07 -68.39 -12.44 1.65 -9.07zm-3.86 25.61l66.84 19.09 -2.53 8.87 -27.54 -7.87 -9.87 34.54 27.54 7.87 -2.53 8.87 -66.84 -19.09 2.53 -8.87 31.46 8.99 9.86 -34.54 -31.46 -8.99 2.53 -8.87zm-17.01 59.73l57.54 47.25 -3.19 9.6 -74.89 4.91 3.3 -9.94 22.53 -0.98 9.24 -27.78 -17.61 -13.8 3.08 -9.26zm20.77 27.99l-7.48 22.48 20.57 -0.8c6.25,-0.22 11.36,-0.26 15.35,-0.15 -4,-2.34 -7.82,-4.95 -11.49,-7.86l-16.95 -13.67zm-49.56 49.23l55.96 25.17 9.4 -20.9 7.44 3.35 -22.58 50.2 -7.44 -3.35 9.4 -20.89 -55.96 -25.17 3.78 -8.41z"/>
   <path class="fil0" d="M650 1601.55c0,0 -25.23,-2.1 -39.69,-17.88 -14.46,-15.77 -51.79,-33.91 -74.92,-26.29 -23.13,7.63 -75.44,34.44 -80.44,32.6 -5,-1.84 -5.26,6.84 18.93,11.57 24.18,4.73 17.08,22.08 46.79,24.19 29.71,2.1 56.26,-11.3 80.18,-16.04 23.92,-4.73 49.68,1.31 49.16,-8.15zm-31.01 6.2c0,0 -28.92,-24.34 -51.53,-28.28 -22.61,-3.94 -37.85,4.21 -37.85,4.21 0,0 43.9,6.05 57.04,17.61 13.14,11.57 15.77,5.78 32.34,6.46z"/>
   <path class="fil1" d="M512.1 1550.94c0,0 -37.71,-1.17 -57.17,-16.68 -19.45,-15.51 -48.37,-13.67 -62.3,-10.51 -13.93,3.15 -45.74,-4.73 0.79,22.87 46.53,27.6 72.55,17.61 107.78,7.62 35.23,-9.99 -23.13,5.26 -46.27,1.58 -23.13,-3.68 -34.3,-13.14 -22.74,-12.36 6.08,0.41 16.9,-0.75 26.42,0.99 8.6,1.58 25.87,7.22 35.26,9.15"/>
   <path class="fil0" d="M493.88 1553.6c-9.39,-1.93 -26.67,-7.57 -35.26,-9.15 -9.52,-1.75 -20.34,-0.58 -26.42,-0.99 -11.56,-0.79 -0.4,8.68 22.74,12.36 9.9,1.57 26.24,-0.31 38.95,-2.21zm-101.25 -29.86c13.93,-3.15 42.85,-5 62.3,10.51 17.46,13.92 49.63,16.29 56.04,16.63 0.73,0.04 1.13,0.05 1.13,0.05 -0.67,0.35 -3.98,1.34 -10.9,3.3 -35.23,9.99 -61.25,19.98 -107.78,-7.62 -46.53,-27.6 -14.72,-19.71 -0.79,-22.87z"/>
   <path class="fil0" d="M472.68 1536.79c-6.82,-5.74 -20.89,-15.09 -26.99,-20.45 -6.76,-5.94 -12.15,-14.5 -15.95,-18.7 -7.24,-7.98 6.1,-5.29 22.11,9.47 6.85,6.31 14.89,19.32 20.83,29.68zm-80.11 -56.65c5.73,11.98 21.05,34.13 43.56,39.39 20.21,4.71 40.48,26.82 44.42,31.29 0.45,0.51 0.69,0.79 0.69,0.79 -0.13,-0.69 -1.32,-3.68 -3.87,-9.85 -13.01,-31.45 -20.72,-56.18 -67.66,-74.22 -46.94,-18.04 -22.86,0.62 -17.13,12.6z"/>
   <path class="fil0" d="M386.22 1512.04c-6.78,-2.89 -18.93,-9.78 -25.16,-12.28 -6.9,-2.77 -15.23,-3.55 -19.75,-4.79 -8.59,-2.36 -1.62,6.47 15.24,12.78 7.22,2.7 19.81,3.77 29.67,4.28zm-71.7 -37.96c10.98,-0.25 33.04,2.79 45.32,17.44 11.02,13.15 34.89,19.85 39.67,21.09 0.54,0.14 0.84,0.21 0.84,0.21 -0.56,0.16 -3.2,0.4 -8.72,0.82 -28.06,2.14 -49.18,5.69 -80.01,-22.21 -30.83,-27.9 -8.08,-17.1 2.9,-17.35z"/>
   <path class="fil0" d="M370.4 1493.46c-3.87,-4.88 -12.21,-13.23 -15.64,-17.75 -3.81,-5 -6.3,-11.62 -8.32,-15.02 -3.85,-6.47 4.91,-2.77 13.83,9.55 3.82,5.27 7.51,15.3 10.14,23.22zm-46.99 -49.92c2.26,9 9.67,26.3 24.36,33.02 13.18,6.04 23.99,23.99 26.07,27.6 0.24,0.41 0.36,0.64 0.36,0.64 0,-0.49 -0.39,-2.7 -1.29,-7.28 -4.54,-23.34 -6.38,-41.35 -36.02,-60.22 -29.64,-18.87 -15.74,-2.75 -13.48,6.25z"/>
   <path class="fil0" d="M319.11 1465.06c-5.27,-2.61 -14.63,-8.65 -19.48,-10.93 -5.37,-2.52 -11.97,-3.52 -15.5,-4.71 -6.73,-2.27 -1.59,5.08 11.55,10.87 5.62,2.48 15.6,3.91 23.43,4.77zm-55.36 -33.5c8.75,0.31 26.18,3.73 35.29,15.96 8.18,10.97 26.88,17.4 30.62,18.6 0.43,0.14 0.66,0.21 0.66,0.21 -0.46,0.1 -2.57,0.17 -6.98,0.25 -22.44,0.42 -39.42,2.28 -62.69,-21.34 -23.27,-23.62 -5.65,-13.98 3.1,-13.68z"/>
   <path class="fil0" d="M305.48 1447.21c-2.57,-3.64 -8.17,-9.94 -10.43,-13.31 -2.51,-3.73 -4.02,-8.55 -5.32,-11.06 -2.48,-4.77 3.62,-1.78 9.48,7.38 2.5,3.92 4.73,11.22 6.28,16.98zm-31.48 -37.54c1.24,6.51 5.82,19.16 16.03,24.56 9.16,4.85 16.14,18.1 17.47,20.76 0.15,0.31 0.23,0.47 0.23,0.47 0.02,-0.35 -0.17,-1.94 -0.62,-5.25 -2.28,-16.84 -2.86,-29.77 -23.23,-44.44 -20.37,-14.68 -11.12,-2.61 -9.88,3.91z"/>
   <path class="fil0" d="M261.77 1423.62c-3.57,-2.77 -9.69,-8.75 -13,-11.21 -3.66,-2.72 -8.48,-4.48 -10.96,-5.92 -4.72,-2.74 -1.97,3.58 7.04,9.95 3.86,2.73 11.15,5.33 16.92,7.17zm-36.57 -33.69c6.54,1.57 19.15,6.81 24.14,17.41 4.48,9.51 17.59,17.21 20.22,18.69 0.3,0.17 0.46,0.26 0.46,0.26 -0.36,0.01 -1.96,-0.26 -5.29,-0.87 -16.97,-3.11 -30.04,-4.3 -43.96,-25.65 -13.92,-21.35 -2.12,-11.4 4.43,-9.83z"/>
   <path class="fil0" d="M254.39 1408.28c-1.39,-3.16 -4.68,-8.82 -5.88,-11.72 -1.33,-3.22 -1.74,-7.12 -2.34,-9.23 -1.15,-4.01 3.03,-0.79 6.06,7.07 1.3,3.36 1.87,9.26 2.16,13.88zm-18.15 -33.4c-0.06,5.14 1.47,15.46 8.4,21.14 6.22,5.1 9.48,16.25 10.08,18.48 0.07,0.26 0.1,0.39 0.1,0.39 0.07,-0.26 0.17,-1.5 0.34,-4.09 0.86,-13.16 2.42,-23.07 -10.81,-37.37 -13.23,-14.3 -8.05,-3.7 -8.11,1.44z"/>
   <path class="fil0" d="M227.89 1383.15c-2.8,-2.85 -7.46,-8.82 -10.06,-11.37 -2.89,-2.82 -6.9,-4.93 -8.9,-6.49 -3.81,-2.96 -2.16,2.91 4.99,9.56 3.05,2.85 9.14,5.99 13.98,8.3zm-28.05 -33.87c5.55,2.15 15.97,8.24 19.09,18.12 2.8,8.87 13.37,17.17 15.5,18.78 0.24,0.18 0.38,0.28 0.38,0.28 -0.31,-0.04 -1.69,-0.46 -4.54,-1.39 -14.5,-4.74 -25.82,-7.34 -35.48,-27.7 -9.66,-20.36 -0.5,-10.24 5.05,-8.09z"/>
   <path class="fil0" d="M223.12 1368.65c-0.83,-2.91 -3.02,-8.21 -3.72,-10.87 -0.78,-2.95 -0.67,-6.39 -0.95,-8.29 -0.52,-3.62 2.72,-0.33 4.43,6.86 0.73,3.08 0.53,8.26 0.24,12.31zm-11.82 -31.13c-0.66,4.46 -0.54,13.6 4.8,19.35 4.8,5.16 6.32,15.22 6.58,17.23 0.03,0.23 0.04,0.35 0.04,0.35 0.1,-0.22 0.33,-1.28 0.78,-3.51 2.29,-11.32 4.81,-19.75 -4.99,-33.72 -9.8,-13.97 -6.56,-4.16 -7.21,0.3z"/>
   <path class="fil0" d="M200.34 1343.75c-1.67,-2.58 -4.27,-7.78 -5.84,-10.1 -1.74,-2.56 -4.44,-4.77 -5.71,-6.25 -2.42,-2.81 -2.07,1.86 2.3,7.96 1.86,2.61 5.97,5.91 9.26,8.38zm-15.95 -29.8c3.85,2.47 10.77,8.65 11.61,16.57 0.75,7.11 7.44,14.98 8.81,16.51 0.16,0.18 0.24,0.27 0.24,0.27 -0.23,-0.08 -1.2,-0.61 -3.2,-1.75 -10.2,-5.78 -18.32,-9.47 -22.49,-26.29 -4.17,-16.81 1.19,-7.79 5.04,-5.32z"/>
   <path class="fil0" d="M199.03 1332.25c-0.19,-2.34 -1.03,-6.71 -1.16,-8.84 -0.14,-2.37 0.47,-4.96 0.56,-6.45 0.16,-2.83 2.12,0.16 2.31,5.89 0.08,2.45 -0.87,6.36 -1.71,9.39zm-4.19 -25.49c-1.19,3.29 -2.51,10.26 0.67,15.45 2.85,4.66 2.45,12.54 2.34,14.11 -0.01,0.18 -0.02,0.27 -0.02,0.27 0.11,-0.15 0.45,-0.93 1.13,-2.55 3.49,-8.25 6.7,-14.27 1.41,-26.41 -5.3,-12.13 -4.34,-4.17 -5.53,-0.88z"/>
   <path class="fil1 str2" d="M919.79 1145.8c0,0 -94.79,-28.2 -100.05,32.79 -5.26,60.99 -1.05,112.51 -1.05,112.51"/>
   <path class="fil0 str0" d="M1139.77 1175.17l3 4.72 8.1 -0.1 69.35 107.31c0,0 -98.55,-4.01 -146.34,-15.11 -58.36,-13.55 -150.69,-40.3 -210.1,-19.14 -25.42,9.05 -35.57,25.05 -36.07,21.23 -8,-60.77 -12.71,-132.48 60.68,-129.28 12.56,-2.33 27.91,-1.38 46.58,5.09 79.65,27.6 136.96,26.07 204.79,25.27z"/>
  </g>
 </g>
</svg>
